<?xml version="1.0" encoding="utf-8"?>
<!-- Generator: Adobe Illustrator 26.1.0, SVG Export Plug-In . SVG Version: 6.00 Build 0)  -->
<svg version="1.1" id="Calque_1" xmlns="http://www.w3.org/2000/svg" xmlns:xlink="http://www.w3.org/1999/xlink" x="0px" y="0px"
	 viewBox="0 0 86 45" style="enable-background:new 0 0 86 45;" xml:space="preserve">
<style type="text/css">
	.st0{fill:#ED6E55;}
	.st1{fill:#020203;}
	.st2{fill:none;}
</style>
<g>
	<path class="st0" d="M28.74,44.09c0-9.8,0-19.56,0-29.39c0.2,0,0.39,0,0.58,0c3.39,0,6.77-0.04,10.16,0.03
		c2.8,0.06,5.63,0.1,8.32,1.02c5.29,1.8,8.39,5.49,9.24,11.02c0.44,2.84,0.27,5.65-0.77,8.35c-1.75,4.55-5.16,7.2-9.81,8.34
		c-2.3,0.56-4.67,0.63-7.03,0.65c-3.46,0.03-6.92,0.01-10.37,0.01C28.97,44.11,28.88,44.1,28.74,44.09z M48.6,37.13
		c1.01-1,1.68-2.03,2.15-3.2c0.7-1.77,0.84-3.63,0.76-5.51c-0.2-5.25-3.78-8.98-9.02-9.26c-2.6-0.14-5.21-0.14-7.82-0.2
		c-0.14,0-0.28,0.02-0.44,0.04c0,6.93,0,13.83,0,20.76c0.82,0,1.6,0,2.45,0c0-4.44,0-8.86,0-13.31c1.08,0,2.1,0,3.18,0
		c0,4.45,0,8.87,0,13.27c0.53,0,1,0,1.53,0c0-3.42,0-6.77,0-10.13c1.09,0,2.13,0,3.22,0c0,3.25,0,6.46,0,9.74
		c0.41-0.13,0.74-0.25,1.09-0.34c0.42-0.11,0.53-0.34,0.53-0.78c-0.03-1.8-0.01-3.6-0.01-5.4c0-0.19,0-0.38,0-0.56
		c0.84,0,1.59,0,2.39,0C48.6,33.84,48.6,35.42,48.6,37.13z"/>
	<g>
		<path class="st1" d="M38.16,12.94c0-1.41,0-2.77,0-4.17c1.39,0,2.76,0,4.16,0c0,1.4,0,2.77,0,4.17
			C40.93,12.94,39.54,12.94,38.16,12.94z"/>
		<path class="st1" d="M49.96,12.38c-1.05,0-2.04,0-3.04,0c0-1.03,0-2.03,0-3.07c1.02,0,2.02,0,3.04,0
			C49.96,10.34,49.96,11.34,49.96,12.38z"/>
		<path class="st1" d="M43.17,5.35c0-0.76,0-1.47,0-2.23c0.74,0,1.46,0,2.21,0c0,0.74,0,1.47,0,2.23
			C44.65,5.35,43.94,5.35,43.17,5.35z"/>
		<path class="st1" d="M33.53,11.88c-0.69,0-1.34,0-2.03,0c0-0.69,0-1.34,0-2.03c0.68,0,1.34,0,2.03,0
			C33.53,10.52,33.53,11.17,33.53,11.88z"/>
		<path class="st1" d="M54.5,5.88c0,0.56,0,1.1,0,1.69c-0.59,0-1.15,0-1.76,0c0-0.55,0-1.1,0-1.69C53.3,5.88,53.88,5.88,54.5,5.88z"
			/>
		<path class="st1" d="M50.89,2.59c-0.58,0-1.12,0-1.69,0c0-0.57,0-1.13,0-1.72c0.56,0,1.11,0,1.69,0C50.89,1.45,50.89,2,50.89,2.59
			z"/>
		<path class="st1" d="M34.98,3.44c0,0.54,0,1.06,0,1.62c-0.54,0-1.08,0-1.67,0c0-0.52,0-1.05,0-1.62
			C33.86,3.44,34.41,3.44,34.98,3.44z"/>
	</g>
	<path class="st2" d="M48.72,37.13c0-1.71,0-3.28,0-4.88c-0.8,0-1.55,0-2.39,0c0,0.18,0,0.37,0,0.56c0,1.8-0.02,3.6,0.01,5.4
		c0.01,0.43-0.11,0.67-0.53,0.78c-0.34,0.09-0.68,0.21-1.09,0.34c0-3.28,0-6.49,0-9.74c-1.09,0-2.12,0-3.22,0c0,3.36,0,6.72,0,10.13
		c-0.53,0-1,0-1.53,0c0-4.4,0-8.82,0-13.27c-1.08,0-2.09,0-3.18,0c0,4.45,0,8.87,0,13.31c-0.85,0-1.63,0-2.45,0
		c0-6.92,0-13.83,0-20.76c0.16-0.01,0.3-0.04,0.44-0.04c2.61,0.06,5.22,0.06,7.82,0.2c5.24,0.28,8.82,4.01,9.02,9.26
		c0.07,1.89-0.06,3.74-0.76,5.51C50.41,35.1,49.74,36.13,48.72,37.13z"/>
</g>
</svg>
